<svg width="445" height="143" viewBox="0 0 445 143" fill="none" xmlns="http://www.w3.org/2000/svg">
<g opacity="0.5">
<path d="M58.9116 111.292V73.7897H41.4625L22.6546 111.292H-0.515503L21.725 66.9322C10.998 61.0271 5.63459 51.86 5.63459 39.4307C5.63459 29.2397 8.97185 21.3583 15.6464 15.7866C22.3209 10.2148 31.6414 7.38136 43.6078 7.28611H80.4369V111.292H58.9116ZM27.0884 41.0022C27.0884 46.8121 28.4948 51.0266 31.3077 53.6458C34.1682 56.265 38.4351 57.5746 44.1084 57.5746H58.9116V24.6442H44.1084C32.7617 24.6442 27.0884 30.0969 27.0884 41.0022Z" fill="white"/>
<path d="M171.687 38.2878C181.604 38.2878 189.518 41.5737 195.429 48.1455C201.341 54.7173 204.297 63.6463 204.297 74.9327V75.9327C204.297 87.0762 201.007 96.0052 194.428 102.72C187.849 109.435 179.005 112.792 167.897 112.792C156.741 112.792 147.85 109.173 141.223 101.934C134.644 94.648 131.354 84.7665 131.354 72.2897V68.8609C131.449 51.479 134.381 37.883 140.15 28.073C145.966 18.2153 154.691 12.0007 166.324 9.42909C172.426 8.09568 176.359 6.78608 178.123 5.5003C179.887 4.16689 180.769 2.33346 180.769 0H197.503C197.503 7.4766 195.477 13.096 191.425 16.8581C187.42 20.6202 180.269 23.5251 169.971 25.5728C163.868 26.811 159.053 29.2159 155.525 32.7875C151.997 36.3591 149.614 41.3832 148.374 47.8598C154.953 41.4785 162.724 38.2878 171.687 38.2878ZM167.754 55.003C162.843 55.003 158.982 56.646 156.169 59.9318C153.404 63.2177 152.021 68.5514 152.021 75.9327C152.021 82.5045 153.38 87.5286 156.097 91.005C158.815 94.4337 162.748 96.1481 167.897 96.1481C172.903 96.1481 176.765 94.4575 179.482 91.0764C182.199 87.6953 183.582 82.7188 183.63 76.147V74.4326C183.63 68.099 182.223 63.2892 179.41 60.0033C176.645 56.6698 172.76 55.003 167.754 55.003Z" fill="white"/>
<path d="M245.56 82.0759L259.862 34.0019H282.031L250.923 123.292L249.207 127.364C244.582 137.46 236.954 142.508 226.323 142.508C223.319 142.508 220.268 142.055 217.169 141.151V125.507L220.316 125.578C224.225 125.578 227.133 124.983 229.04 123.792C230.995 122.602 232.521 120.626 233.617 117.864L236.049 111.506L208.945 34.0019H231.186L245.56 82.0759Z" fill="white"/>
<path d="M287.252 94.648C291.924 89.6954 295.094 84.7903 296.763 79.9329C298.431 75.0755 299.361 68.1942 299.552 59.289L300.124 34.0019H357.048V94.648H368.204V134.507H347.537V111.292H301.697V134.507H280.601V94.648H287.252ZM311.638 94.648H336.452V51.0742H320.362L320.219 60.3604C319.79 74.5517 316.929 85.9809 311.638 94.648Z" fill="white"/>
<path d="M407.608 82.0759L421.91 34.0019H444.079L412.971 123.292L411.255 127.364C406.63 137.46 399.002 142.508 388.371 142.508C385.367 142.508 382.316 142.055 379.217 141.151V125.507L382.364 125.578C386.273 125.578 389.181 124.983 391.088 123.792C393.043 122.602 394.568 120.626 395.665 117.864L398.096 111.506L370.993 34.0019H393.234L407.608 82.0759Z" fill="white"/>
</g>
</svg>
