<svg width="395" height="80" viewBox="0 0 395 80" fill="none" xmlns="http://www.w3.org/2000/svg">
<g opacity="0.6">
<path d="M51.8931 0.507812V57.0784H36.7716V12.7421H23.4292L22.4874 30.2048C21.8944 39.5112 20.063 46.2906 16.9934 50.543C13.9238 54.7953 9.35418 56.9738 3.28466 57.0784H-1.84303L-2 44.7918L-0.116358 44.635C2.60446 44.4258 4.59275 42.8225 5.84851 39.8249C7.10427 36.8273 7.88912 31.721 8.20306 24.5059L9.24953 0.507812H51.8931Z" fill="white"/>
<path d="M84.6999 35.6945L95.1646 0.507812H111.385L88.6241 65.862L87.3684 68.8421C83.9848 76.2315 78.4036 79.9262 70.6249 79.9262C68.4273 79.9262 66.1948 79.5951 63.9275 78.9328V67.4828L66.2297 67.5351C69.0901 67.5351 71.2179 67.0994 72.6132 66.228C74.0433 65.3566 75.1596 63.9101 75.9619 61.8885L77.7409 57.2352L57.9103 0.507812H74.1829L84.6999 35.6945Z" fill="white"/>
<path d="M165.069 57.0784H149.947V39.3021C147.122 39.8249 144.488 40.0863 142.046 40.0863C133.5 40.0863 127.064 38.2738 122.739 34.6488C118.414 31.0239 116.216 25.7258 116.146 18.7547V0.507812H131.268V18.7547C131.303 22.0311 132.105 24.3839 133.675 25.813C135.244 27.2072 138.035 27.9043 142.046 27.9043C144.558 27.9043 147.191 27.608 149.947 27.0155V0.507812H165.069V57.0784Z" fill="white"/>
<path d="M191.806 0.507812V44.8964H207.346V0.507812H222.52V44.8964H238.06V0.507812H253.181V57.0784H176.684V0.507812H191.806Z" fill="white"/>
<path d="M299.435 0.507812H314.557V57.0784H299.435V22.1531L280.494 57.0784H265.32V0.507812H280.494V35.3808L299.435 0.507812Z" fill="white"/>
<path d="M360.601 39.2498L375.409 0.507812H394.35V57.0784H379.228V22.3622L365.677 57.0784H355.526L342.236 22.9374V57.0784H327.114V0.507812H345.898L360.601 39.2498Z" fill="white"/>
</g>
</svg>
