<svg width="352" height="80" viewBox="0 0 352 80" fill="none" xmlns="http://www.w3.org/2000/svg">
<g opacity="0.5">
<path d="M4.97864 45.2857C8.34695 41.7078 10.6326 38.1643 11.8355 34.6553C13.0385 31.1462 13.7087 26.175 13.8462 19.7418L14.2587 1.47397H55.297V45.2857H63.3397V74.0807H48.4401V57.3094H15.3929V74.0807H0.18396V45.2857H4.97864ZM22.5591 45.2857H40.449V13.8073H28.8489L28.7458 20.5158C28.4365 30.7678 26.3743 39.0244 22.5591 45.2857Z" fill="white"/>
<path d="M120.206 29.9077C120.206 38.5084 118.247 45.4061 114.328 50.6009C110.444 55.7613 105.186 58.3415 98.5522 58.3415C92.9155 58.3415 88.3614 56.3805 84.89 52.4586V78.7766H69.9904V1.47397H83.8073L84.3229 6.94398C87.9318 2.60926 92.6405 0.441895 98.4491 0.441895C105.323 0.441895 110.668 2.98769 114.483 8.07927C118.298 13.1709 120.206 20.189 120.206 29.1337V29.9077ZM105.306 28.824C105.306 23.6292 104.378 19.6213 102.522 16.8003C100.7 13.9793 98.0367 12.5688 94.5309 12.5688C89.8565 12.5688 86.6429 14.3577 84.89 17.9356V40.7961C86.7116 44.4772 89.9596 46.3178 94.634 46.3178C101.749 46.3178 105.306 40.4865 105.306 28.824Z" fill="white"/>
<path d="M149.695 36.2034L160.007 1.47397H175.989L153.562 65.9788L152.325 68.9203C148.991 76.2136 143.492 79.8603 135.827 79.8603C133.662 79.8603 131.462 79.5335 129.228 78.8798V67.5786L131.496 67.6302C134.315 67.6302 136.411 67.2001 137.786 66.3401C139.195 65.48 140.295 64.0523 141.086 62.0569L142.839 57.4642L123.299 1.47397H139.333L149.695 36.2034Z" fill="white"/>
<path d="M219.863 13.5493H196.766V57.3094H181.866V1.47397H219.863V13.5493Z" fill="white"/>
<path d="M222.75 28.8756C222.75 23.3368 223.815 18.4 225.946 14.0653C228.077 9.73059 231.136 6.37634 235.123 4.00256C239.145 1.62878 243.802 0.441895 249.095 0.441895C256.622 0.441895 262.757 2.74687 267.5 7.35682C272.278 11.9668 274.941 18.228 275.491 26.1406L275.595 29.9593C275.595 38.5256 273.206 45.4061 268.428 50.6009C263.651 55.7613 257.241 58.3415 249.198 58.3415C241.155 58.3415 234.728 55.7613 229.916 50.6009C225.139 45.4405 222.75 38.4224 222.75 29.5465V28.8756ZM237.65 29.9593C237.65 35.2573 238.646 39.3168 240.64 42.1378C242.633 44.9244 245.486 46.3178 249.198 46.3178C252.807 46.3178 255.625 44.9417 257.653 42.1894C259.681 39.4028 260.695 34.9649 260.695 28.8756C260.695 23.6808 259.681 19.6557 257.653 16.8003C255.625 13.9449 252.773 12.5172 249.095 12.5172C245.452 12.5172 242.633 13.9449 240.64 16.8003C238.646 19.6213 237.65 24.0077 237.65 29.9593Z" fill="white"/>
<path d="M318.747 39.7125L333.337 1.47397H352V57.3094H337.1V23.0444L323.748 57.3094H313.746L300.651 23.612V57.3094H285.751V1.47397H304.259L318.747 39.7125Z" fill="white"/>
</g>
</svg>
