<svg width="84" height="82" viewBox="0 0 84 82" fill="none" xmlns="http://www.w3.org/2000/svg">
<path d="M82 35.9773L42 3.96082" stroke="#242424" stroke-width="4" stroke-linecap="round" stroke-linejoin="round"/>
<path d="M2 35.9773L42 3.96082" stroke="#242424" stroke-width="4" stroke-linecap="round" stroke-linejoin="round"/>
<path d="M14 80V27.9731" stroke="#242424" stroke-width="4" stroke-linecap="round"/>
<path d="M70 80V27.9731" stroke="#242424" stroke-width="4" stroke-linecap="round"/>
<path d="M14 80H70" stroke="#242424" stroke-width="4" stroke-linecap="round"/>
<path d="M42.2877 45.7485L52.7216 49.3937V64.2641C52.7216 64.553 52.6043 64.83 52.3955 65.0343C52.1867 65.2385 51.9035 65.3533 51.6082 65.3533H47.1546C46.8593 65.3533 46.5761 65.2385 46.3673 65.0343C46.1585 64.83 46.0412 64.553 46.0412 64.2641V56.64H34.9072V64.2641C34.9072 64.553 34.7899 64.83 34.5811 65.0343C34.3723 65.2385 34.0891 65.3533 33.7938 65.3533H29.3402C29.0449 65.3533 28.7617 65.2385 28.5529 65.0343C28.3441 64.83 28.2268 64.553 28.2268 64.2641V49.7028C25.6409 48.8008 23.7732 46.406 23.7732 43.5701C23.7732 42.9924 24.0078 42.4384 24.4254 42.0298C24.843 41.6213 25.4094 41.3918 26 41.3918C26.5906 41.3918 27.157 41.6213 27.5746 42.0298C27.9922 42.4384 28.2268 42.9924 28.2268 43.5701C28.2279 44.1475 28.4629 44.701 28.8802 45.1093C29.2976 45.5175 29.8634 45.7474 30.4536 45.7485H42.2877ZM59.4021 38.1244V40.3027C59.4021 41.4581 58.9328 42.5662 58.0976 43.3833C57.2624 44.2003 56.1296 44.6593 54.9485 44.6593H52.7216V47.0813L43.8144 43.9697V33.7677C43.8144 32.7977 45.0127 32.3117 45.7149 32.9978L47.6132 34.8569H51.3452C52.1044 34.8569 52.9979 35.396 53.3368 36.0611L53.835 37.0352H58.2887C58.584 37.0352 58.8671 37.15 59.076 37.3542C59.2848 37.5585 59.4021 37.8355 59.4021 38.1244ZM51.6082 38.1244C51.6082 37.9089 51.5429 37.6984 51.4206 37.5193C51.2983 37.3401 51.1244 37.2005 50.9209 37.1181C50.7175 37.0357 50.4936 37.0141 50.2776 37.0561C50.0616 37.0982 49.8633 37.2019 49.7075 37.3542C49.5518 37.5065 49.4458 37.7006 49.4028 37.9119C49.3599 38.1232 49.3819 38.3421 49.4662 38.5412C49.5505 38.7402 49.6932 38.9103 49.8763 39.03C50.0594 39.1496 50.2746 39.2135 50.4948 39.2135C50.7901 39.2135 51.0733 39.0988 51.2821 38.8945C51.4909 38.6903 51.6082 38.4132 51.6082 38.1244Z" fill="#242424"/>
<path d="M36.7669 6.69643C36.2141 5.38602 35.417 4.19853 34.4202 3.20045C33.4227 2.1994 32.2466 1.40387 30.9559 0.857135C29.6175 0.287954 28.182 -0.0033853 26.7327 2.96773e-05C24.6995 2.96773e-05 22.7158 0.570026 20.9919 1.64669C20.5794 1.90424 20.1876 2.18713 19.8165 2.49535C19.4453 2.18713 19.0535 1.90424 18.6411 1.64669C16.9172 0.570026 14.9334 2.96773e-05 12.9002 2.96773e-05C11.4361 2.96773e-05 10.0174 0.287139 8.67705 0.857135C7.38206 1.40602 6.21492 2.19557 5.21274 3.20045C4.21467 4.19741 3.41739 5.38517 2.86608 6.69643C2.29282 8.0602 2 9.50841 2 10.9988C2 12.4048 2.28044 13.8699 2.83721 15.3604C3.30324 16.6059 3.97136 17.8979 4.82507 19.2026C6.1778 21.2672 8.0378 23.4205 10.3473 25.6034C14.1746 29.2218 17.9647 31.7214 18.1256 31.8227L19.103 32.4645C19.536 32.7474 20.0928 32.7474 20.5258 32.4645L21.5033 31.8227C21.6641 31.7171 25.4501 29.2218 29.2815 25.6034C31.591 23.4205 33.451 21.2672 34.8038 19.2026C35.6575 17.8979 36.3297 16.6059 36.7916 15.3604C37.3484 13.8699 37.6288 12.4048 37.6288 10.9988C37.6329 9.50841 37.3401 8.0602 36.7669 6.69643Z" fill="#EEBF3A"/>
</svg>
