<svg width="98" height="98" viewBox="0 0 98 98" fill="none" xmlns="http://www.w3.org/2000/svg">
<g filter="url(#filter0_ddi)">
<circle cx="43.5" cy="43.5" r="31.5" fill="url(#paint0_linear)"/>
<circle cx="43.5" cy="43.5" r="31" stroke="url(#paint1_linear)"/>
</g>
<g filter="url(#filter1_d)">
<circle cx="43.5" cy="43.5" r="24.5" fill="url(#paint2_linear)"/>
</g>
<g filter="url(#filter2_d)">
<path d="M57.3122 38.219C57.5218 37.5157 57.3122 37 56.3211 37H53.0379C52.2025 37 51.8207 37.4461 51.6111 37.9361C51.6111 37.9361 49.9418 42.0482 47.5764 44.7145C46.8128 45.4903 46.464 45.7353 46.0478 45.7353C45.8397 45.7353 45.5373 45.4903 45.5373 44.7871V38.219C45.5373 37.3751 45.2963 37 44.6001 37H39.441C38.92 37 38.6056 37.3902 38.6056 37.7622C38.6056 38.5607 39.7883 38.7453 39.9096 40.9956V45.8775C39.9096 46.9467 39.7195 47.1418 39.3003 47.1418C38.1879 47.1418 35.4811 43.0146 33.8747 38.29C33.5618 37.372 33.2459 37.0015 32.4075 37.0015H29.1258C28.1871 37.0015 28 37.4477 28 37.9377C28 38.8178 29.1124 43.1734 33.1815 48.934C35.8943 52.8676 39.7135 55 43.1928 55C45.2783 55 45.5358 54.5266 45.5358 53.71V50.7367C45.5358 49.79 45.7349 49.5994 46.3951 49.5994C46.8802 49.5994 47.7156 49.8474 49.6634 51.7424C51.8881 53.9897 52.2564 54.9985 53.5065 54.9985H56.7882C57.7254 54.9985 58.194 54.5251 57.9245 53.5905C57.6295 52.6604 56.5666 51.3068 55.1563 49.7053C54.3898 48.7918 53.2445 47.8088 52.8956 47.3173C52.4091 46.6836 52.5498 46.4038 52.8956 45.8412C52.8971 45.8427 56.896 40.1533 57.3122 38.219Z" fill="#F6F6F6"/>
</g>
<defs>
<filter id="filter0_ddi" x="0" y="0" width="98" height="98" filterUnits="userSpaceOnUse" color-interpolation-filters="sRGB">
<feFlood flood-opacity="0" result="BackgroundImageFix"/>
<feColorMatrix in="SourceAlpha" type="matrix" values="0 0 0 0 0 0 0 0 0 0 0 0 0 0 0 0 0 0 127 0"/>
<feOffset dx="-4" dy="-4"/>
<feGaussianBlur stdDeviation="4"/>
<feColorMatrix type="matrix" values="0 0 0 0 1 0 0 0 0 0.858839 0 0 0 0 0.495853 0 0 0 1 0"/>
<feBlend mode="normal" in2="BackgroundImageFix" result="effect1_dropShadow"/>
<feColorMatrix in="SourceAlpha" type="matrix" values="0 0 0 0 0 0 0 0 0 0 0 0 0 0 0 0 0 0 127 0"/>
<feOffset dx="7" dy="7"/>
<feGaussianBlur stdDeviation="8"/>
<feColorMatrix type="matrix" values="0 0 0 0 0.800295 0 0 0 0 0.592484 0 0 0 0 0 0 0 0 0.6 0"/>
<feBlend mode="normal" in2="effect1_dropShadow" result="effect2_dropShadow"/>
<feBlend mode="normal" in="SourceGraphic" in2="effect2_dropShadow" result="shape"/>
<feColorMatrix in="SourceAlpha" type="matrix" values="0 0 0 0 0 0 0 0 0 0 0 0 0 0 0 0 0 0 127 0" result="hardAlpha"/>
<feOffset dx="13" dy="22"/>
<feGaussianBlur stdDeviation="4"/>
<feComposite in2="hardAlpha" operator="arithmetic" k2="-1" k3="1"/>
<feColorMatrix type="matrix" values="0 0 0 0 0.946089 0 0 0 0 0.78037 0 0 0 0 0.311421 0 0 0 1 0"/>
<feBlend mode="normal" in2="shape" result="effect3_innerShadow"/>
</filter>
<filter id="filter1_d" x="9" y="9" width="75" height="75" filterUnits="userSpaceOnUse" color-interpolation-filters="sRGB">
<feFlood flood-opacity="0" result="BackgroundImageFix"/>
<feColorMatrix in="SourceAlpha" type="matrix" values="0 0 0 0 0 0 0 0 0 0 0 0 0 0 0 0 0 0 127 0"/>
<feOffset dx="3" dy="3"/>
<feGaussianBlur stdDeviation="6.5"/>
<feColorMatrix type="matrix" values="0 0 0 0 0.758333 0 0 0 0 0.560324 0 0 0 0 0 0 0 0 1 0"/>
<feBlend mode="normal" in2="BackgroundImageFix" result="effect1_dropShadow"/>
<feBlend mode="normal" in="SourceGraphic" in2="effect1_dropShadow" result="shape"/>
</filter>
<filter id="filter2_d" x="22" y="31" width="42" height="30" filterUnits="userSpaceOnUse" color-interpolation-filters="sRGB">
<feFlood flood-opacity="0" result="BackgroundImageFix"/>
<feColorMatrix in="SourceAlpha" type="matrix" values="0 0 0 0 0 0 0 0 0 0 0 0 0 0 0 0 0 0 127 0"/>
<feOffset/>
<feGaussianBlur stdDeviation="3"/>
<feColorMatrix type="matrix" values="0 0 0 0 0.821128 0 0 0 0 0.606722 0 0 0 0 0 0 0 0 1 0"/>
<feBlend mode="normal" in2="BackgroundImageFix" result="effect1_dropShadow"/>
<feBlend mode="normal" in="SourceGraphic" in2="effect1_dropShadow" result="shape"/>
</filter>
<linearGradient id="paint0_linear" x1="23.3203" y1="17.3308" x2="62.9665" y2="72.1033" gradientUnits="userSpaceOnUse">
<stop stop-color="#FFE193"/>
<stop offset="1" stop-color="#FFC93F"/>
</linearGradient>
<linearGradient id="paint1_linear" x1="43.5" y1="12" x2="43.5" y2="75" gradientUnits="userSpaceOnUse">
<stop stop-color="#EEBF3A"/>
<stop offset="1" stop-color="#FFDD85"/>
</linearGradient>
<linearGradient id="paint2_linear" x1="28.1" y1="19" x2="56.1" y2="68" gradientUnits="userSpaceOnUse">
<stop stop-color="#FFE28F"/>
<stop offset="1" stop-color="#ECBD37"/>
</linearGradient>
</defs>
</svg>
